<svg xmlns="http://www.w3.org/2000/svg" viewBox="0 0 1000 1000"><title>Mesa de trabajo 17</title><g id="Capa_1" data-name="Capa 1"><rect x="145.91" y="100.98" width="754.93" height="607.37" fill="#fff" stroke="#4f3cc9" stroke-miterlimit="10" stroke-width="3.8"/><path d="M364.05,659.84l-1.2,51,125.88,3a55.4,55.4,0,0,0,16.42,2.06c1.23,0,2.46,0,3.71-.08,8.35-.36,16-1.73,22-4.65l34.44-1.5a5.16,5.16,0,1,0-.45-10.31l-23,1A21.17,21.17,0,0,0,543,697l33.55-1.46a5.15,5.15,0,1,0-.44-10.3l-32.41,1.41a33.48,33.48,0,0,0-.68-4.41l30-1.31a5.15,5.15,0,0,0-.45-10.3l-33.48,1.45a33.37,33.37,0,0,0-2.27-3.47l28.25-3.35A5.16,5.16,0,1,0,563.86,655L524,659.74l-5.39.65h0l1.8-1.22,11.46-7.73a5.16,5.16,0,0,0-5.77-8.55l-24.3,16.39-.53,0a38.38,38.38,0,0,0-15,3.41Z" fill="#fff" stroke="#4f3cc9" stroke-miterlimit="10" stroke-width="1.96"/><path d="M468.9,715.71l-92,2.25-7.31.18a29.59,29.59,0,0,1-6.49-.55.32.32,0,0,1-.09,0,32,32,0,0,1-23.23-23.31.06.06,0,0,1,0,0,29.09,29.09,0,0,1-.54-5l-.12-4.7q0-1.38.06-2.73l.26-2.39,14.48-133.34a32,32,0,0,1,29.66-28.48,30.91,30.91,0,0,1,5.6.12A32,32,0,0,1,417.57,553L406.69,653.21l60.65-1.48a29.64,29.64,0,0,1,30.36,28.91l.12,4.71A29.65,29.65,0,0,1,468.9,715.71Z" fill="#fff" stroke="#4f3cc9" stroke-miterlimit="10" stroke-width="1.96"/><rect x="436.21" y="661.27" width="79.79" height="45.13" transform="matrix(-0.13, 0.99, -0.99, -0.13, 1215.14, 298.96)" fill="#fff" stroke="#4f3cc9" stroke-miterlimit="10" stroke-width="1.96"/><polygon points="458.94 652.89 449.22 716.76 427.19 653.56 458.94 652.89" fill="#4f3cc9"/><path d="M460.21,642.7s7.66,75.45,33.18,83.59l-44.76-5.77Z" fill="#4f3cc9"/><path d="M504.17,658.62s20.91,43.73,34.22,44,30.65-1,30.65-1,2.38,5.71-1.9,7.85-36.31,1.64-36.31,1.64-24.29,8.1-35,5l2.62-23.53,4-33.74Z" fill="#4f3cc9"/><path d="M536,667.89l32.79-9.27s2.38,3.81-1.9,6.66Z" fill="#4f3cc9"/><path d="M543.38,681.2l34.21-8.32s.24,5.47-2.37,7.61Z" fill="#4f3cc9"/><path d="M543,697l36.74-9.16s2.62,5.7-2.37,7.61Z" fill="#4f3cc9"/><path d="M339.46,679.4l-.26,2.39C339.25,681,339.34,680.19,339.46,679.4Z" fill="#fff" stroke="#4f3cc9" stroke-miterlimit="10" stroke-width="1.96"/><path d="M339.3,490.44h0A102.38,102.38,0,0,1,441.68,592.82V777.47a0,0,0,0,1,0,0H236.91a0,0,0,0,1,0,0V592.82A102.38,102.38,0,0,1,339.3,490.44Z" fill="#fff" stroke="#4f3cc9" stroke-miterlimit="10" stroke-width="1.96"/><path d="M345,458.92h0a14,14,0,0,1,13,15l-2.55,35.39c-.55,7.68-2.6,10.57-11.87,15.32l-7-.83c-7.68-.55-9.61-8.82-9-16.51L330,471.88A14,14,0,0,1,345,458.92Z" fill="#fff" stroke="#4f3cc9" stroke-miterlimit="10" stroke-width="1.96"/><polygon points="357.21 492.22 341.51 526.86 364.14 518.5 359.66 510.87 375.18 498.28 357.21 492.22" fill="#77e0b5"/><path d="M380.93,403.48s90.53-9.68,33.78,135l-56-32.05S407.54,407.85,380.93,403.48Z" fill="#f582ae"/><path d="M381.93,491.71s-11.87,21.87,32.78,46.77l-56-32.05,5-12.05" fill="#4f3cc9"/><ellipse cx="376.81" cy="448.69" rx="48.03" ry="34.36" transform="translate(-181.87 625.27) rotate(-67.52)" fill="#fff" stroke="#4f3cc9" stroke-miterlimit="10" stroke-width="1.96"/><path d="M363.57,457.48s-6.29,20.1,15.6,24.11" fill="none" stroke="#4f3cc9" stroke-linecap="round" stroke-miterlimit="10" stroke-width="1.96"/><circle cx="411.51" cy="445.29" r="3.61" fill="#4f3cc9"/><circle cx="390.65" cy="442.57" r="3.61" fill="#4f3cc9"/><path d="M374.06,441.55s11.65-17,24-9.75" fill="none" stroke="#4f3cc9" stroke-linecap="round" stroke-miterlimit="10" stroke-width="1.96"/><path d="M408.78,431s.12,13,15.34,7.18" fill="none" stroke="#4f3cc9" stroke-linecap="round" stroke-miterlimit="10" stroke-width="1.96"/><path d="M302.94,453.71l50.78,35.61s32.4-84.27,58.36-78.25C412.08,411.07,332.21,360.29,302.94,453.71Z" fill="#f582ae"/><polygon points="400.7 442.14 393.66 467.76 385.15 464.21 400.7 442.14" fill="#f582ae"/><ellipse cx="380.52" cy="451.3" rx="2.02" ry="5.46" transform="translate(-207.58 502.3) rotate(-54.82)" fill="#f582ae"/><ellipse cx="402.12" cy="462.58" rx="1.02" ry="3.94" transform="translate(-207.65 524.75) rotate(-54.82)" fill="#f582ae"/><path d="M353.72,489.32s-46-42.46-26-77.94c0,0-16.92,14.3-24.76,42.33Z" fill="#4f3cc9"/><polyline points="363.73 576.17 418.62 576.17 418.62 600.41" fill="none" stroke="#4f3cc9" stroke-miterlimit="10" stroke-width="1.96"/><rect x="536.63" y="466.94" width="29.94" height="230.73" transform="translate(-250.38 569.22) rotate(-45.62)" fill="#77e0b5"/><rect x="578.14" y="630.01" width="65.58" height="19.96" transform="translate(-273.77 628.95) rotate(-45.62)" fill="#4f3cc9"/><path d="M602.36,736.24l-1.82.58a109.78,109.78,0,1,1-64.14-210" fill="none" stroke="#77e0b5" stroke-miterlimit="10" stroke-width="16"/><rect x="578.9" y="722.19" width="104.55" height="9.5" fill="#77e0b5"/><rect x="601.24" y="730.74" width="49.43" height="40.87" fill="#77e0b5"/><rect x="556.56" y="766.19" width="142.1" height="12.36" fill="#4f3cc9"/><circle cx="519.85" cy="524.84" r="22.81" fill="#4f3cc9"/><circle cx="519.85" cy="524.84" r="13.54" fill="#77e0b5"/><circle cx="598.9" cy="740.58" r="13.62" fill="#4f3cc9"/><circle cx="598.9" cy="740.58" r="8.09" fill="#77e0b5"/><path d="M487.56,567.31c.51.79,1,1.6,1.44,2.44A32,32,0,0,1,475.76,613l-112,59.53a32,32,0,0,1-44.23-6.9L237.08,555.2c-.43-.57-.83-1.14-1.21-1.73a32,32,0,0,1,52.51-36.55l65.83,88.23,91.51-48.64a32,32,0,0,1,41.84,10.8Z" fill="#fff" stroke="#4f3cc9" stroke-miterlimit="10" stroke-width="1.96"/><path d="M581.6,527.32a5.28,5.28,0,0,1-5.43,5.09l-37.28-1.24a21.87,21.87,0,0,1,.51,4.62l38.41,1.27a5.26,5.26,0,0,1-.34,10.52l-39.71-1.31A82.25,82.25,0,0,1,528.2,566l5.88-.4,15.72-9.76a3.68,3.68,0,0,1,5.06,1.18l1.67,2.7a3.67,3.67,0,0,1-1.18,5.07L539,574.92l-.07,0a4.34,4.34,0,0,1-2.55,1l-15.92,1a79.18,79.18,0,0,1-12.68,13.3l0,0a36.22,36.22,0,0,1-10.38,6l-8.2,4.46L460.39,554l9.85-5.37c.92-1.58,1.94-3.2,3.05-4.83.13-.18.25-.35.37-.54.8-1.16,1.61-2.38,2.45-3.6a149.69,149.69,0,0,1,11.5-15.53c4.15-4.7,8.62-8.44,13.23-9.76a38.68,38.68,0,0,1,12.66-1.54l42.8-9.32a5.27,5.27,0,0,1,2.25,10.29l-26.84,5.84-3.42.74a5,5,0,0,1,.87,0l3.48.12,43.87,1.43A5.28,5.28,0,0,1,581.6,527.32Z" fill="#fff" stroke="#4f3cc9" stroke-miterlimit="10" stroke-width="1.96"/><rect x="430.68" y="557.94" width="79.79" height="45.13" transform="translate(286.75 1304.81) rotate(-126.73)" fill="#fff" stroke="#4f3cc9" stroke-miterlimit="10" stroke-width="1.96"/><circle cx="460.86" cy="561.91" r="4" fill="#fff" stroke="#4f3cc9" stroke-miterlimit="10" stroke-width="1.96"/><path d="M480.34,555.85s26.13,43.23-4,70.12l36.17-27Z" fill="#4f3cc9"/><path d="M476.11,539.65s34.28,35.54,55.1,21.32l-3,5,8-1.7,15-9s5.75-.4,5.81,7l-6.86,5.86L536.37,576l-15.92,1-12.7,13.32-1.95,1.74-33.43-46.91Z" fill="#4f3cc9"/><path d="M579,537.23s-15.6,8.35-41.65,8.48l40.16,1.87s7.23-1.18,5.29-6.5S579,537.23,579,537.23Z" fill="#4f3cc9"/><path d="M576.94,523s-19.38,8.54-38,8.23l38.07,2s7.13-4,4.07-8.41-3.18-2.16-3.18-2.16Z" fill="#4f3cc9"/><polyline points="353.74 605.54 338.94 633.56 341.07 588.55 352.03 603.25" fill="#4f3cc9"/><path d="M243.06,561.49l76.27,104.56s46.76,98.08,122.35,111.42L236.2,780.08,237.71,600S235.21,572.54,243.06,561.49Z" fill="#4f3cc9"/><path d="M273.55,506.08s19.61,120.12,72.72,171.44c0,0-6.77,6.42-39.92-17.82L238.27,557.76s-22.81-33.5,12.83-52C251.1,505.72,266.43,502.16,273.55,506.08Z" fill="#4f3cc9"/><path d="M429.67,567l-18.53,79.13,57-29.23-36-51S429,562.75,429.67,567Z" fill="#4f3cc9"/><path d="M279.44,508.62s30.11-18.35,49.54-17.28c0,0-6.18,33.15,12.18,34.93,0,0-32.67-8.38-37.31,12.29C303.85,538.56,288.7,512.19,279.44,508.62Z" fill="#4f3cc9"/><path d="M340.68,477.55c-1.42.72,2.85,47.05,2.85,47.05l-1.63,2.62s-12.62-33-13.34-32.79S330,468.52,330,468.52Z" fill="#4f3cc9"/><path d="M327.73,491s-24.38,5.17-21.21,5.17S321.74,507,321.74,507l-4.62,16.26,24.78,4Z" fill="#77e0b5"/><path d="M531.73,644.6,515.81,661l16.87-10.22S534.58,646.27,531.73,644.6Z" fill="#4f3cc9"/><rect x="439.09" y="450.96" width="15.68" height="57.03" transform="translate(-208.35 463.51) rotate(-45.62)" fill="#77e0b5"/><rect x="437.07" y="491.93" width="65.58" height="19.96" transform="translate(-217.49 486.64) rotate(-45.62)" fill="#4f3cc9"/><rect x="408.97" y="451.18" width="37.16" height="19.96" transform="translate(-201.08 444.15) rotate(-45.62)" fill="#4f3cc9"/><path d="M441.44,462.35s-1.67,18.06,8.07,30.65l-20.67-20.2,11.41-11.64Z" fill="#4f3cc9"/><path d="M486.58,498.7l-19.72,20.91,13.31,13.07S478,510.11,486.58,498.7Z" fill="#4f3cc9"/><path d="M526.5,578.07,593,644.37l21.62-22.1S575.22,623,526.5,578.07Z" fill="#4f3cc9"/><path d="M607.77,657.67l20.91-20.91s-5.92,15.43-5.1,36.94Z" fill="#4f3cc9"/><path d="M591.38,730.39s-14,4.75-29,2.85c0,0,5.94,14,24.71,15C587.1,748.21,581.63,738.7,591.38,730.39Z" fill="#4f3cc9"/><path d="M578.9,731.69H683.46s-88.52-2.73-104.56-9.5Z" fill="#4f3cc9"/><path d="M601.83,765.32l48.95-33.75-42.53-.71s2.14,11.88-1.9,15.92-5,6.89-5,6.89Z" fill="#4f3cc9"/><path d="M91.81,777.22h829a0,0,0,0,1,0,0v0a15.56,15.56,0,0,1-15.56,15.56H107.36a15.56,15.56,0,0,1-15.56-15.56v0A0,0,0,0,1,91.81,777.22Z" fill="#fff" stroke="#4f3cc9" stroke-miterlimit="10" stroke-width="1.11"/><path d="M93.89,785H918.72a16,16,0,0,0,2.09-7.78h-829S92.65,782.78,93.89,785Z" fill="#4f3cc9"/><line x1="215.98" y1="166.93" x2="377.8" y2="166.93" fill="#fff" stroke="#4f3cc9" stroke-miterlimit="10" stroke-width="3.8"/><line x1="215.98" y1="179.93" x2="377.8" y2="179.93" fill="#fff" stroke="#4f3cc9" stroke-miterlimit="10" stroke-width="3.8"/><line x1="215.98" y1="194.93" x2="377.8" y2="194.93" fill="#fff" stroke="#4f3cc9" stroke-miterlimit="10" stroke-width="3.8"/><line x1="215.98" y1="208.93" x2="377.8" y2="208.93" fill="#fff" stroke="#4f3cc9" stroke-miterlimit="10" stroke-width="3.8"/><line x1="216.74" y1="224.93" x2="378.56" y2="224.93" fill="#fff" stroke="#4f3cc9" stroke-miterlimit="10" stroke-width="3.8"/><line x1="216.74" y1="237.93" x2="378.56" y2="237.93" fill="#fff" stroke="#4f3cc9" stroke-miterlimit="10" stroke-width="3.8"/><line x1="216.74" y1="252.93" x2="378.56" y2="252.93" fill="#fff" stroke="#4f3cc9" stroke-miterlimit="10" stroke-width="3.8"/><line x1="216.74" y1="266.93" x2="378.56" y2="266.93" fill="#fff" stroke="#4f3cc9" stroke-miterlimit="10" stroke-width="3.8"/><circle cx="501.13" cy="188.86" r="14.26" fill="#fff" stroke="#4f3cc9" stroke-miterlimit="10" stroke-width="3.8"/><path d="M868.66,346.56a14.05,14.05,0,0,1-23.57-9.38L831.35,330a132.59,132.59,0,0,1-44.82,72.33l35.35,49.19A19.75,19.75,0,1,1,808,463.12l-36.1-50.24a131.93,131.93,0,0,1-61.82,19.55l-1.14,52.33a22.54,22.54,0,1,1-20.61,1l1.17-53.71a132.09,132.09,0,0,1-75.69-33.15l-24.38,20.8a19.76,19.76,0,1,1-25.88-12.6,19.57,19.57,0,0,1,13.19-.29L601.15,386a132,132,0,0,1-29.8-64.14l-42.93-2.15A23.7,23.7,0,1,1,528,298l41.6,2.09a132.08,132.08,0,0,1,30.36-84.45l-26.08-41.18a19.78,19.78,0,1,1,14.56-10.74l24.35,38.45a132.12,132.12,0,0,1,74-33.79l-2-27.26A13.52,13.52,0,1,1,697,139.31l2.1,28.2c1,0,2,0,3.08,0a132.09,132.09,0,0,1,84.71,30.58l34.29-27.58a19.79,19.79,0,1,1,12.31,13.26L800,210.62A132.76,132.76,0,0,1,833.7,316.79l16.51,8.59a14.05,14.05,0,0,1,18.45,21.18Z" fill="#4f3cc9"/><circle cx="793.41" cy="277.26" r="24.24" fill="#fff"/><circle cx="600.44" cy="260.01" r="14.12" fill="#fff"/><circle cx="699.53" cy="226.37" r="16.13" fill="#fff"/><circle cx="733.52" cy="388.46" r="24.24" fill="#fff"/><circle cx="666.24" cy="311.1" r="28.79" fill="#fff"/><circle cx="797.33" cy="574.92" r="14.26" fill="#fff" stroke="#4f3cc9" stroke-miterlimit="10" stroke-width="3.8"/><circle cx="323.18" cy="353.99" r="14.26" fill="#fff" stroke="#4f3cc9" stroke-miterlimit="10" stroke-width="3.8"/></g></svg>